<?xml version="1.0" encoding="utf-8"?>
<!-- Generator: Adobe Illustrator 24.0.3, SVG Export Plug-In . SVG Version: 6.00 Build 0)  -->
<svg version="1.1" id="Layer_1" xmlns="http://www.w3.org/2000/svg" xmlns:xlink="http://www.w3.org/1999/xlink" x="0px" y="0px"
	 viewBox="0 0 148 32.3" style="enable-background:new 0 0 148 32.3;" xml:space="preserve">
<g>
	<g>
		<g>
			<path d="M59.6,26.3c-0.9-0.6-1.7-2.2-2.5-4.3c-0.5-1.4-8.4-21.4-8.4-21.4S39.8,22.3,39,23.8c-0.4,0.9-1,1.7-1.8,2.3
				c-0.2,0.2-0.3,0.2-0.2,0.2c0,0,4.3,0,4.5,0c0.1,0,0.1,0,0-0.2c-0.5-0.5-0.6-1.8-0.4-2.5c0.2-0.6,1.8-4.6,1.8-4.6h9.2
				c0,0,1.2,3.1,1.4,3.7c0.1,0.4,0.2,0.7,0.2,1c0,0.2,0,0.2,0,0.5c0,0.9-0.9,1.7-1,1.8c-0.2,0.2-0.2,0.2-0.1,0.2c0.2,0,6.7,0,7,0
				C59.8,26.4,59.8,26.4,59.6,26.3z M43.7,17.4l4-10.1l3.8,10.1H43.7z"/>
			<path d="M94,23.7c0,1.5-0.8,2.1-1.4,2.5c-0.2,0.1-0.2,0.2,0,0.2s9.6,0,9.6,0c1.8,0,4.1-0.4,5.3-1.1c1.9-1.3,3-3.3,3.1-5.4
				c0.2-2.7-1-5.7-4.8-7.1c1.4-0.5,4.2-4.2,1.9-8c-0.8-1.4-3.1-3.2-5.9-3.2c-3.1,0-9,0-9,0h-0.2c-0.3,0-0.2,0.1,0.1,0.2
				C93,1.9,94,2.4,94,3.9V23.7L94,23.7z M97.8,12.1V3.3h2.9c2.4,0,4.4,2.2,4.4,4.6c0,2.2-1,3.4-2.3,3.9c0,0-1,0.3-1.9,0.3
				C100.6,12.1,97.7,12.1,97.8,12.1L97.8,12.1z M97.8,24.8V13.6c0,0,1.1,0,3.4,0c3.2,0,5.9,2.6,5.9,5.4c0,2.5-1.7,5.7-6.1,5.8h-3.4
				H97.8z"/>
			<path d="M133.3,1.5c0.2,0,0.2,0.1-0.1,0.2c-0.2,0.1-0.4,0.4-0.6,0.6s-0.6,0.6-0.7,1c-1.4,2.5-12,24.2-13.7,26.5
				c-1.1,1.5-2.5,2.1-3.1,2.1s-0.7,0-1.3,0s-0.4-0.1-0.2-0.2c0.2-0.2,0.5-0.2,0.7-0.4c0.2-0.2,0.5-0.3,0.8-0.7
				c1.3-1.3,2.6-3.5,3.5-5.5c0,0-7.8-19.5-8-20.2c-0.3-0.9-1.3-2.6-2.1-3.1c-0.3-0.2-0.6-0.3-0.1-0.3h6.3v0.2
				c-0.8,0.6-0.8,1.4-0.6,2.3l6.6,16.9c0,0,7.7-14.9,8.2-15.9c0.5-1.2,0.1-2.6-0.5-3.3c-0.1-0.2,0-0.1,0.2-0.1L133.3,1.5z"/>
			<path d="M26.5,2.7c-5.4,0.9-9,6.4-8,12.4c0.8,5.4,4.7,9.2,9.5,9.4h0.2c0.2,0,0.3,0,0.6,0c1,0,2.1-0.1,3.5-0.4l0,0
				c0-0.7,0-5.6,0-5.9c0-0.4-0.1-0.9-0.2-1.3c-0.1-0.4-0.6-1.1-0.8-1.3c-0.3-0.2-0.2-0.2,0.2-0.2c0,0,5,0,5.5,0c0.4,0,0.3,0.1,0,0.2
				c-0.3,0.2-0.7,0.9-0.9,1.1c-0.1,0.2-0.3,1-0.3,1.5v7.9l0,0h-7.7c-1,0-3.2-0.3-4.7-0.7c-1.8-0.3-2.8-0.9-3.9-1.7l0,0
				c-2.7-1.9-4.6-5.1-4.9-9.5c-0.2-3.4,1-6.9,3-9l0,0c2.1-2.5,5.5-4.7,9.9-4.7c3.3,0,6.4,0.9,8.5,2.5v4.1c0,0.1-0.1,0-0.1,0
				C33.9,4.4,30.9,2,26.5,2.7L26.5,2.7z"/>
			<path d="M81.4,26.9c0.4,0.1,0.8,0,1.2,0.1c4.5,0,8.2-2.6,8.7-6.1l0,0c0.1-0.3,0.2-0.6,0.2-1c0-0.6-0.1-1.4-0.2-1.9l0,0
				c-0.3-1-0.8-2.1-2.2-3.1c-0.3-0.2-0.6-0.4-1-0.6l0,0c-0.1-0.1-0.2-0.1-0.2-0.2l0,0c-1.9-1.3-7.1-3.9-8.5-5.9
				c-1.4-2.1,0.2-3.9,1.5-4.6s3-0.7,4.8-0.2c1.5,0.4,3.4,1.8,4.3,3.1c0.2,0.2,0.2,0.2,0.2,0c-0.1-0.2,0-3.5,0-3.5s-2.7-1.5-6.9-1.5
				c-0.1,0-0.1,0-0.2,0l0,0c-4.3,0-7.7,2.8-7.7,6.2c0,1.7,0.9,3.5,2.2,4.6l0,0c1.5,1.1,3,2,4.6,3l0,0C83.3,16,84,16.4,85,17l0,0
				c0.2,0.2,0.5,0.2,0.6,0.4l0,0c1.5,1,2.2,2.1,2.2,3.6c0,2.2-2,4.1-4.7,4.4l0,0c-0.3,0-0.6,0.1-1,0.1c-3,0-5.6-1.8-6.9-3.7v-0.1
				c-0.1,0-0.1,0.1-0.1,0.2l-0.3,3.6C74.9,25.4,77.8,26.7,81.4,26.9L81.4,26.9z"/>
			<path d="M66.3,24.1c0,0-0.1,1.4,1.8,2.2v0.1h-7.4v-0.1c1.9-0.9,1.8-2.3,1.8-2.3V3.5h-5.4c-1.5,0-2.2,0.8-3,1.7H54l0.9-3.7l0,0
				h18.6l1,3.8h-0.1c-0.7-1-1.5-1.7-3-1.7H66L66.3,24.1z"/>
		</g>
	</g>
</g>
</svg>
